<?xml version="1.0" encoding="UTF-8"?>
<svg version="1.1" xmlns="http://www.w3.org/2000/svg" width="300" height="100">
<path d="M0 0 C1.19744744 -0.00785502 1.19744744 -0.00785502 2.41908574 -0.01586872 C5.09122926 -0.03085768 7.76318111 -0.03157363 10.43536377 -0.03224182 C12.35251183 -0.0398641 14.26965683 -0.04829172 16.1867981 -0.0574646 C21.39355773 -0.07941097 26.60025863 -0.08820882 31.80705929 -0.09329104 C35.06137475 -0.09693475 38.31567484 -0.10317493 41.56998444 -0.11029243 C52.92713598 -0.13478838 64.28424185 -0.14783894 75.64141846 -0.15138245 C86.22116347 -0.15501679 96.80061822 -0.18490466 107.38027453 -0.22678703 C116.46834898 -0.2615009 125.5563273 -0.27693109 134.64446759 -0.27762848 C140.0701753 -0.27842098 145.4955874 -0.28714734 150.9212265 -0.31562614 C156.02671438 -0.34182505 161.13166194 -0.34400163 166.23718643 -0.3279705 C168.10721389 -0.32615742 169.97727255 -0.33283401 171.84723282 -0.34878922 C189.88653441 -0.49327857 189.88653441 -0.49327857 197.01837158 5.27415466 C197.62890759 5.72415109 198.23944359 6.17414751 198.86848068 6.63778019 C200.58087158 7.96165466 200.58087158 7.96165466 203.01837158 10.27415466 C203.01837158 10.93415466 203.01837158 11.59415466 203.01837158 12.27415466 C203.67837158 12.27415466 204.33837158 12.27415466 205.01837158 12.27415466 C205.67326531 13.64486247 206.31682121 15.0209891 206.95587158 16.39915466 C207.31552002 17.16485779 207.67516846 17.93056091 208.04571533 18.71946716 C210.6112814 25.45794188 210.4119435 32.87668083 210.68585205 39.99485779 C210.740587 41.34088403 210.80268766 42.6866322 210.87237549 44.03196716 C211.49776449 56.12479714 209.70300197 64.68898083 204.01837158 75.27415466 C203.35837158 75.27415466 202.69837158 75.27415466 202.01837158 75.27415466 C201.65485596 76.16747498 201.65485596 76.16747498 201.28399658 77.07884216 C199.77527007 79.69583073 198.29098479 80.76031411 195.76837158 82.39915466 C195.02071533 82.89673279 194.27305908 83.39431091 193.50274658 83.90696716 C188.07818115 86.89218399 183.08516193 87.56948357 176.97463989 87.55503845 C175.78521119 87.56395182 175.78521119 87.56395182 174.57175362 87.57304525 C171.92354528 87.59034198 169.27551858 87.59342911 166.6272583 87.59642029 C164.72468177 87.60568224 162.82210895 87.61573231 160.91954041 87.62651062 C155.75603288 87.65271128 150.59257732 87.66563955 145.42901373 87.67453194 C142.19962845 87.68040181 138.97025724 87.68861307 135.74087906 87.69754028 C125.62706027 87.72487938 115.51327379 87.74421727 105.39942062 87.75194407 C93.74291207 87.76089945 82.08687329 87.79597218 70.43050754 87.85394526 C61.40860794 87.89725071 52.38684015 87.91735648 43.36483777 87.9200263 C37.98202314 87.92211751 32.59965041 87.93382709 27.21694565 87.96966553 C22.14912501 88.00275163 17.08207546 88.0068789 12.01418495 87.98938751 C10.16153325 87.98785328 8.30883902 87.99644618 6.45629311 88.01630402 C-5.23948679 88.13424963 -14.99576202 87.50817088 -24.19728279 79.29695892 C-34.66540081 68.52988481 -34.18250412 55.01905209 -34.35662842 40.89915466 C-34.39401123 39.75704529 -34.43139404 38.61493591 -34.46990967 37.43821716 C-34.57470293 27.1917649 -31.9881288 17.43243486 -24.78631592 9.80149841 C-17.36834426 3.52351807 -9.70101011 -0.03157844 0 0 Z " fill="#116B6E" transform="translate(61.98162841796875,4.7258453369140625)"/>
<path d="M0 0 C7.63077389 4.47560873 12.2129428 10.38285116 15.45703125 18.5703125 C17.36758002 28.81780136 16.37078045 37.98660401 10.44921875 46.7734375 C5.15267091 53.24937859 -1.00204918 56.64000598 -8.85546875 59.2578125 C-19.48112334 60.15554786 -26.82204327 58.74870065 -35.10546875 52.0078125 C-42.49514977 45.1186278 -45.8340004 37.48636072 -46.23046875 27.3828125 C-46.11324089 21.50676581 -44.857819 17.27736683 -41.85546875 12.2578125 C-41.44296875 11.55785156 -41.03046875 10.85789062 -40.60546875 10.13671875 C-31.77060086 -3.14068214 -14.14285886 -6.70788994 0 0 Z " fill="#166D71" transform="translate(85.85546875,20.7421875)"/>
<path d="M0 0 C7.63077389 4.47560873 12.2129428 10.38285116 15.45703125 18.5703125 C17.36758002 28.81780136 16.37078045 37.98660401 10.44921875 46.7734375 C5.15267091 53.24937859 -1.00204918 56.64000598 -8.85546875 59.2578125 C-19.48112334 60.15554786 -26.82204327 58.74870065 -35.10546875 52.0078125 C-42.49514977 45.1186278 -45.8340004 37.48636072 -46.23046875 27.3828125 C-46.11324089 21.50676581 -44.857819 17.27736683 -41.85546875 12.2578125 C-41.44296875 11.55785156 -41.03046875 10.85789062 -40.60546875 10.13671875 C-31.77060086 -3.14068214 -14.14285886 -6.70788994 0 0 Z M-35.73046875 10.1328125 C-41.39637278 17.23162498 -42.49248545 22.69240698 -42.26171875 31.75 C-41.41466339 39.06399723 -38.31216531 44.21629626 -32.98046875 49.1953125 C-25.68553286 54.94448131 -19.00388498 56.31698028 -9.85546875 55.2578125 C-1.20850786 52.92241448 4.55986686 49.00105702 9.07421875 41.25 C12.53878278 34.80135891 13.00879482 28.47213896 12.14453125 21.2578125 C9.51339654 12.6301382 3.96341772 7.15050565 -3.62109375 2.59765625 C-7.3709948 1.04425521 -10.6681489 0.7197507 -14.66796875 0.7578125 C-15.37429443 0.76425781 -16.08062012 0.77070313 -16.80834961 0.77734375 C-25.25897295 1.07246029 -30.07670077 4.11617328 -35.73046875 10.1328125 Z " fill="#E5E8E4" transform="translate(85.85546875,20.7421875)"/>
<path d="M0 0 C3.5386994 1.65139305 4.81070153 2.71605229 7 6 C7.58423266 10.90148436 7.64296016 15.49975963 5.6875 20.0625 C3.68156136 22.36561474 1.97439105 23.82665328 -1.0859375 24.37109375 C-5.54279615 24.50038828 -7.3794666 24.49125561 -11 21.625 C-14.17037583 17.46388172 -14.38916553 14.69709472 -14.359375 9.55078125 C-13.78039966 5.44131496 -12.00085071 3.78650423 -9 1 C-5.93570224 -0.53214888 -3.3834358 -0.22938548 0 0 Z " fill="#EAECE7" transform="translate(192,23)"/>
<path d="M0 0 C12.53846154 0 12.53846154 0 16 3 C17.38550197 5.77100394 17.1877467 7.9334706 17 11 C16.01 12.485 16.01 12.485 15 14 C14.34 14 13.68 14 13 14 C13.28875 14.55429687 13.5775 15.10859375 13.875 15.6796875 C14.431875 16.76636719 14.431875 16.76636719 15 17.875 C15.37125 18.59429687 15.7425 19.31359375 16.125 20.0546875 C17 22 17 22 17 24 C15.35 24 13.7 24 12 24 C10.58398438 21.31445312 10.58398438 21.31445312 9.16796875 18.62890625 C8.00980201 16.67732013 8.00980201 16.67732013 5 16 C5 18.64 5 21.28 5 24 C3.35 24 1.7 24 0 24 C0 16.08 0 8.16 0 0 Z " fill="#E3E7E3" transform="translate(203,23)"/>
<path d="M0 0 C1.98 0 3.96 0 6 0 C7.33852796 3.62310328 8.66993718 7.24878144 10 10.875 C10.3815625 11.90753906 10.763125 12.94007812 11.15625 14.00390625 C11.5171875 14.99003906 11.878125 15.97617187 12.25 16.9921875 C12.58515625 17.90339355 12.9203125 18.81459961 13.265625 19.75341797 C14 22 14 22 14 24 C12.35 24 10.7 24 9 24 C8.67 22.35 8.34 20.7 8 19 C6.54052295 19.06006078 5.08220728 19.1488689 3.625 19.25 C2.81289062 19.29640625 2.00078125 19.3428125 1.1640625 19.390625 C-1.18838927 19.7922092 -1.18838927 19.7922092 -2.2890625 22.046875 C-2.52367187 22.69140625 -2.75828125 23.3359375 -3 24 C-4.32 24 -5.64 24 -7 24 C-6.40531984 18.33171945 -4.90757199 13.39677846 -2.9375 8.0625 C-2.65583984 7.28326172 -2.37417969 6.50402344 -2.08398438 5.70117188 C-1.39532294 3.79859875 -0.69850097 1.89898275 0 0 Z " fill="#E8EBE6" transform="translate(239,23)"/>
<path d="M0 0 C10 0 10 0 14 2 C15.35439668 4.70879335 15.06501451 7.00933268 15 10 C13.02 10.99 13.02 10.99 11 12 C11.66 13.11375 12.32 14.2275 13 15.375 C15 18.75 15 18.75 15 21 C13.35 21 11.7 21 10 21 C9.566875 20.030625 9.13375 19.06125 8.6875 18.0625 C7.2985139 14.72268235 7.2985139 14.72268235 4 14 C4 16.31 4 18.62 4 21 C2.68 21 1.36 21 0 21 C0 14.07 0 7.14 0 0 Z " fill="#E8EAE6" transform="translate(214,53)"/>
<path d="M0 0 C5 1 5 1 7.01953125 3.72265625 C7.90705078 5.37587891 7.90705078 5.37587891 8.8125 7.0625 C9.41707031 8.16722656 10.02164063 9.27195312 10.64453125 10.41015625 C11.09183594 11.26480469 11.53914062 12.11945313 12 13 C12.33 8.71 12.66 4.42 13 0 C14.32 0 15.64 0 17 0 C17 6.93 17 13.86 17 21 C15.35 21 13.7 21 12 21 C9.98046875 18.375 9.98046875 18.375 8.1875 15 C7.58292969 13.88625 6.97835937 12.7725 6.35546875 11.625 C5.68451172 10.325625 5.68451172 10.325625 5 9 C4.67 12.96 4.34 16.92 4 21 C2.68 21 1.36 21 0 21 C0 14.07 0 7.14 0 0 Z " fill="#E3E6E2" transform="translate(178,53)"/>
<path d="M0 0 C3.44121198 1.45295617 4.6657595 2.31560279 6.3125 5.6875 C6.6528125 6.8321875 6.6528125 6.8321875 7 8 C4.125 8.1875 4.125 8.1875 1 8 C0.34 7.01 -0.32 6.02 -1 5 C-3.97065509 5.34227572 -3.97065509 5.34227572 -7 6 C-8.5121867 9.02437339 -8.17263369 11.66241534 -8 15 C-7.11935073 17.35369807 -7.11935073 17.35369807 -6 19 C-3.58354218 19.16687448 -3.58354218 19.16687448 -1 19 C-0.34 18.34 0.32 17.68 1 17 C3.625 16.875 3.625 16.875 6 17 C4.75023244 20.65316671 4.32901247 21.78065836 1 24 C-2.06578057 24.5454104 -4.9329232 24.53808365 -8 24 C-11.28175318 21.47031526 -12.69243777 19.92268669 -14 16 C-14.34531267 10.64765358 -14.47574585 7.34468232 -11 3 C-7.62367204 -0.4969111 -4.72851776 -0.49773871 0 0 Z " fill="#E8EAE6" transform="translate(152,23)"/>
<path d="M0 0 C1.65 0 3.3 0 5 0 C5.67184618 2.10251861 6.33730968 4.20707763 7 6.3125 C7.37125 7.48425781 7.7425 8.65601563 8.125 9.86328125 C9 13 9 13 9 16 C9.66 16 10.32 16 11 16 C11.10957031 15.43152344 11.21914062 14.86304688 11.33203125 14.27734375 C12.37938166 9.17683242 13.79271753 4.715558 16 0 C17.32 0 18.64 0 20 0 C18.40554307 8.26218593 15.73981931 16.06288986 13 24 C11.02 24 9.04 24 7 24 C5.82599412 20.56496228 4.66206791 17.12659286 3.5 13.6875 C3.16613281 12.71103516 2.83226563 11.73457031 2.48828125 10.72851562 C2.17246094 9.79072266 1.85664062 8.85292969 1.53125 7.88671875 C1.23798828 7.02264404 0.94472656 6.15856934 0.64257812 5.26831055 C0 3 0 3 0 0 Z " fill="#E7EAE5" transform="translate(107,23)"/>
<path d="M0 0 C1.65 0 3.3 0 5 0 C6.00736628 2.93502595 7.00460504 5.87339461 8 8.8125 C8.28617188 9.64587891 8.57234375 10.47925781 8.8671875 11.33789062 C9.13789063 12.14033203 9.40859375 12.94277344 9.6875 13.76953125 C9.93886719 14.50792236 10.19023437 15.24631348 10.44921875 16.00708008 C11 18 11 18 11 21 C9.68 21 8.36 21 7 21 C6.67 20.01 6.34 19.02 6 18 C3.36 17.67 0.72 17.34 -2 17 C-2.33 18.32 -2.66 19.64 -3 21 C-4.32 21 -5.64 21 -7 21 C-5.62820313 13.51747162 -3.07836721 6.94395046 0 0 Z " fill="#E4E7E3" transform="translate(165,53)"/>
<path d="M0 0 C2.4375 1.3125 2.4375 1.3125 4 3 C4 3.99 4 4.98 4 6 C0.66666667 5.33333333 -2.66666667 4.66666667 -6 4 C-6 5.32 -6 6.64 -6 8 C-3.98177083 8.45572917 -1.96354167 8.91145833 0.0546875 9.3671875 C2 10 2 10 4 12 C4.55829517 17.24797464 4.55829517 17.24797464 2.76171875 19.66796875 C0.53861647 21.34885096 -0.73606622 21.40263934 -3.5 21.375 C-4.2734375 21.38273437 -5.046875 21.39046875 -5.84375 21.3984375 C-8.50414788 20.90684224 -9.41331254 20.16643864 -11 18 C-11 17.01 -11 16.02 -11 15 C-8.58686871 15.46921997 -6.19380821 15.9501636 -3.8125 16.5625 C-1.98673164 17.07821351 -1.98673164 17.07821351 0 17 C-0.33 16.01 -0.66 15.02 -1 14 C-3.07156997 12.97990001 -3.07156997 12.97990001 -5.5 12.1875 C-9.83187843 10.38427788 -9.83187843 10.38427788 -11.3125 7 C-11 4 -11 4 -9.5 1.625 C-6.10659098 -0.58071586 -3.97718104 -0.49714763 0 0 Z " fill="#E4E7E3" transform="translate(242,53)"/>
<path d="M0 0 C2.9375 2.375 2.9375 2.375 5 5 C5 5.66 5 6.32 5 7 C3.35 7 1.7 7 0 7 C-0.33 6.34 -0.66 5.68 -1 5 C-2.66611905 4.957279 -4.33382885 4.95936168 -6 5 C-7.2245178 6.00469623 -7.2245178 6.00469623 -7.1328125 8.03125 C-7.13023438 8.8459375 -7.12765625 9.660625 -7.125 10.5 C-7.12757812 11.3146875 -7.13015625 12.129375 -7.1328125 12.96875 C-7.2245178 14.99530377 -7.2245178 14.99530377 -6 16 C-3.54190002 16.2500773 -3.54190002 16.2500773 -1 16 C-0.34 15.34 0.32 14.68 1 14 C2.32 14 3.64 14 5 14 C3.75023244 17.65316671 3.32901247 18.78065836 0 21 C-4.21178243 21.46797583 -6.28599114 21.46565795 -9.875 19.125 C-12.73785628 16.26214372 -13.1865146 14.63283238 -13.3125 10.6875 C-13.28413514 7.16458401 -13.06650675 6.10641081 -11.125 3 C-7.50431507 -0.40770346 -4.93066984 -0.50142405 0 0 Z " fill="#E0E5E1" transform="translate(121,53)"/>
<path d="M0 0 C4.29 0 8.58 0 13 0 C13 1.32 13 2.64 13 4 C10.03 4 7.06 4 4 4 C4 5.65 4 7.3 4 9 C6.64 9 9.28 9 12 9 C12 9.99 12 10.98 12 12 C9.36 12 6.72 12 4 12 C4 13.65 4 15.3 4 17 C6.97 17 9.94 17 13 17 C13 18.32 13 19.64 13 21 C8.71 21 4.42 21 0 21 C0 14.07 0 7.14 0 0 Z " fill="#E8EBE7" transform="translate(198,53)"/>
<path d="M0 0 C4.29 0 8.58 0 13 0 C13 1.32 13 2.64 13 4 C10.03 4 7.06 4 4 4 C4 5.65 4 7.3 4 9 C6.64 9 9.28 9 12 9 C12 9.99 12 10.98 12 12 C9.36 12 6.72 12 4 12 C4 13.65 4 15.3 4 17 C6.97 17 9.94 17 13 17 C13 18.32 13 19.64 13 21 C8.71 21 4.42 21 0 21 C0 14.07 0 7.14 0 0 Z " fill="#EAECE8" transform="translate(143,53)"/>
<path d="M0 0 C5.61 0 11.22 0 17 0 C17 1.65 17 3.3 17 5 C15.02 5 13.04 5 11 5 C11 11.27 11 17.54 11 24 C9.35 24 7.7 24 6 24 C6 17.73 6 11.46 6 5 C4.02 5 2.04 5 0 5 C0 3.35 0 1.7 0 0 Z " fill="#E4E7E3" transform="translate(160,23)"/>
<path d="M0 0 C1.65 0 3.3 0 5 0 C5 4.62 5 9.24 5 14 C5.66 14 6.32 14 7 14 C7 14.99 7 15.98 7 17 C6.34 17 5.68 17 5 17 C5 18.32 5 19.64 5 21 C4.01 21 3.02 21 2 21 C2 19.68 2 18.36 2 17 C-0.97 17 -3.94 17 -7 17 C-6.46105575 12.40191871 -5.23428472 9.13215631 -2.9375 5.125 C-2.38964844 4.15820312 -1.84179688 3.19140625 -1.27734375 2.1953125 C-0.85582031 1.47085938 -0.43429688 0.74640625 0 0 Z " fill="#EDEFEA" transform="translate(71,38)"/>
<path d="M0 0 C0.33 0 0.66 0 1 0 C1 4.95 1 9.9 1 15 C0.01 15.495 0.01 15.495 -1 16 C-1 15.01 -1 14.02 -1 13 C-4.24983135 14.08784968 -4.24983135 14.08784968 -7 16 C-9.4375 16.1875 -9.4375 16.1875 -12 16 C-14 14 -14 14 -14.265625 11.90625 C-14.25789063 10.71515625 -14.25789063 10.71515625 -14.25 9.5 C-14.25515625 8.7059375 -14.2603125 7.911875 -14.265625 7.09375 C-14 5 -14 5 -12 3 C-9.375 2.875 -9.375 2.875 -7 3 C-6.67 3.99 -6.34 4.98 -6 6 C-4.35 6 -2.7 6 -1 6 C-0.67 4.02 -0.34 2.04 0 0 Z " fill="#10696C" transform="translate(127,54)"/>
<path d="M0 0 C2.5625 0.5625 2.5625 0.5625 4.875 2.6875 C6.86839252 6.08365022 7.20791672 7.6899997 6.5625 11.5625 C4.875 14.4375 4.875 14.4375 2.5625 16.5625 C0 17.0625 0 17.0625 -2.4375 16.5625 C-4.53277276 14.94959219 -5.34272731 14.06702522 -5.8359375 11.44140625 C-5.80015731 7.90513049 -5.75271196 5.24269423 -4.25 2 C-2.4375 0.5625 -2.4375 0.5625 0 0 Z " fill="#1B6F72" transform="translate(188.4375,26.4375)"/>
<path d="M0 0 C3.46464111 0.27173656 4.68165104 0.93690865 7.1875 3.25 C6.85040194 9.76722911 5.74524263 12.57539218 1.1875 17.25 C3.1675 17.58 5.1475 17.91 7.1875 18.25 C7.1875 19.57 7.1875 20.89 7.1875 22.25 C2.8975 22.25 -1.3925 22.25 -5.8125 22.25 C-4.60205946 17.40823786 -2.28477181 14.61581551 0.69140625 10.6875 C2.53623761 8.15849141 2.53623761 8.15849141 2.1875 4.25 C1.1975 4.25 0.2075 4.25 -0.8125 4.25 C-1.1425 4.91 -1.4725 5.57 -1.8125 6.25 C-2.8025 6.25 -3.7925 6.25 -4.8125 6.25 C-3.75054285 0.33338159 -3.75054285 0.33338159 0 0 Z " fill="#E4E8E3" transform="translate(55.8125,36.75)"/>
<path d="M0 0 C1.65 0 3.3 0 5 0 C5 5.61 5 11.22 5 17 C7.64 17 10.28 17 13 17 C13 18.32 13 19.64 13 21 C8.71 21 4.42 21 0 21 C0 14.07 0 7.14 0 0 Z " fill="#D9DFDC" transform="translate(128,53)"/>
<path d="M0 0 C1.65 0 3.3 0 5 0 C5 7.92 5 15.84 5 24 C3.35 24 1.7 24 0 24 C0 16.08 0 8.16 0 0 Z " fill="#DFE5E1" transform="translate(224,23)"/>
<path d="M0 0 C1.65 0 3.3 0 5 0 C5 7.92 5 15.84 5 24 C3.35 24 1.7 24 0 24 C0 16.08 0 8.16 0 0 Z " fill="#E4E8E3" transform="translate(130,23)"/>
<path d="M0 0 C3.63 0 7.26 0 11 0 C11 4.29 11 8.58 11 13 C7.37 13 3.74 13 0 13 C0 11.35 0 9.7 0 8 C2.64 8 5.28 8 8 8 C8 7.01 8 6.02 8 5 C5.36 5 2.72 5 0 5 C0 3.35 0 1.7 0 0 Z " fill="#267376" transform="translate(202,57)"/>
<path d="M0 0 C3.96 0 7.92 0 12 0 C11.5003731 7.49440349 9.56235522 13.95650263 7 21 C5.68 21 4.36 21 3 21 C3.57065878 14.58008874 5.67344909 8.98410537 8 3 C5.36 3 2.72 3 0 3 C0 2.01 0 1.02 0 0 Z " fill="#E7EAE6" transform="translate(80,38)"/>
<path d="M0 0 C0.515625 0.433125 1.03125 0.86625 1.5625 1.3125 C4.582386 3.40319031 7.5958835 4.62526065 11 6 C11 6.99 11 7.98 11 9 C8.625 9.625 8.625 9.625 6 10 C5.34 9.34 4.68 8.68 4 8 C1.93125966 7.3574765 1.93125966 7.3574765 0 7 C-0.66 8.32 -1.32 9.64 -2 11 C-6 6.25 -6 6.25 -6 4 C-4.03852126 2.61061923 -2.03833424 1.2739589 0 0 Z " fill="#1E6E71" transform="translate(231,61)"/>
<path d="M0 0 C1.98 0 3.96 0 6 0 C6.38218767 1.65614657 6.71395102 3.32457024 7 5 C6 6 6 6 2.9375 6.0625 C1.4834375 6.0315625 1.4834375 6.0315625 0 6 C0 4.02 0 2.04 0 0 Z " fill="#307578" transform="translate(218,57)"/>
<path d="M0 0 C1.98 0 3.96 0 6 0 C6.38218767 1.65614657 6.71395102 3.32457024 7 5 C6 6 6 6 2.9375 6.0625 C1.4834375 6.0315625 1.4834375 6.0315625 0 6 C0 4.02 0 2.04 0 0 Z " fill="#13696C" transform="translate(208,28)"/>
<path d="M0 0 C0 0.66 0 1.32 0 2 C-0.99 2.33 -1.98 2.66 -3 3 C-4.84399021 4.9466718 -6.49469912 7.00800719 -8.18359375 9.08984375 C-10.02321723 11.02441554 -11.55756696 11.97471492 -14 13 C-11.56992527 7.53233185 -6.65298875 0 0 0 Z " fill="#86ADAA" transform="translate(47,9)"/>
<path d="M0 0 C0.66 0 1.32 0 2 0 C2.66 2.97 3.32 5.94 4 9 C2.02 9 0.04 9 -2 9 C-1.34 6.03 -0.68 3.06 0 0 Z " fill="#3C7B7E" transform="translate(241,29)"/>
<path d="M0 0 C0.33 0 0.66 0 1 0 C1 3.3 1 6.6 1 10 C-0.65 10 -2.3 10 -4 10 C-3.52449439 8.51965236 -3.04448784 7.04074979 -2.5625 5.5625 C-2.29566406 4.73878906 -2.02882813 3.91507813 -1.75390625 3.06640625 C-1 1 -1 1 0 0 Z " fill="#5D8D8E" transform="translate(72,42)"/>
<path d="M0 0 C0.33 0 0.66 0 1 0 C1 6.93 1 13.86 1 21 C0.01 21 -0.98 21 -2 21 C-2 19.68 -2 18.36 -2 17 C-1.34 17 -0.68 17 0 17 C0 11.39 0 5.78 0 0 Z " fill="#21686C" transform="translate(213,53)"/>
<path d="M0 0 C1.65 0 3.3 0 5 0 C5.33 1.32 5.66 2.64 6 4 C4.35 4.33 2.7 4.66 1 5 C0.34 4.01 -0.32 3.02 -1 2 C-0.67 1.34 -0.34 0.68 0 0 Z " fill="#2B7477" transform="translate(236,66)"/>
<path d="M0 0 C0.33 0 0.66 0 1 0 C2.79217969 5.16569441 3.12029814 8.51053913 2 14 C1.34 13.67 0.68 13.34 0 13 C0 8.71 0 4.42 0 0 Z " fill="#105A5E" transform="translate(270,50)"/>
<path d="M0 0 C0.99 0.66 1.98 1.32 3 2 C2.25 4.4375 2.25 4.4375 1 7 C-1.125 7.8125 -1.125 7.8125 -3 8 C-1.125 2.25 -1.125 2.25 0 0 Z " fill="#E1E5E1" transform="translate(69,41)"/>
<path d="M0 0 C0.66 0 1.32 0 2 0 C2.33 1.98 2.66 3.96 3 6 C1.68 6 0.36 6 -1 6 C-0.67 4.02 -0.34 2.04 0 0 Z " fill="#2C6E72" transform="translate(166,60)"/>
<path d="M0 0 C0.86625 0.37125 0.86625 0.37125 1.75 0.75 C0.574375 1.2759375 0.574375 1.2759375 -0.625 1.8125 C-4.08547272 4.36665844 -4.39536744 6.63222494 -5.25 10.75 C-5.58 10.75 -5.91 10.75 -6.25 10.75 C-6.73514851 4.44306931 -6.73514851 4.44306931 -4.5 1.25 C-2.25 -0.25 -2.25 -0.25 0 0 Z " fill="#3F797B" transform="translate(149.25,27.25)"/>
</svg>
